<svg width="44" height="44" viewBox="0 0 44 44" fill="none" xmlns="http://www.w3.org/2000/svg">
<path d="M4.95322 11.1416C8.92008 14.268 17.6257 21.9182 20.7135 27.5079C24.5731 34.495 21.807 34.3061 18.462 31.8512C15.117 29.3963 11.6433 25.5565 11.386 25.2418C11.1287 24.927 12.3509 30.5293 20.7135 36.1946C29.6623 42.257 27.8268 35.4565 25.538 30.5293C23.2302 25.561 11.3809 12.4813 4.09834 7.60549C4.72058 6.73534 5.35721 6.17639 6.17544 5.60229C16.1462 11.8015 26.441 25.2778 31.7778 34.3061C31.9628 34.6192 29.4229 28.4413 25.0877 21.4649C20.5691 15.1208 11.2112 7.29681 7.20468 4.28041C8.23392 3.3362 8.79732 2.94433 9.77778 2.54322C13.8947 5.09872 18.7515 9.5552 22.0322 13.1559C26.7924 18.3806 31.7778 24.4864 35.3801 31.0329C36.3343 32.7668 32.807 22.9757 29.3333 18.6323C26.0003 14.4649 16.8607 5.78092 11.386 1.38484C12.5439 0.755365 13.842 0.155871 15.117 0C17.294 1.77302 23.6279 7.29199 25.0877 8.74963C30.0317 13.6863 32.823 17.7289 36.584 23.176C37.3739 24.3201 38.2067 25.5261 39.1111 26.8154C39.8137 27.817 35.4292 14.6255 22.0322 3.3362C34.1677 3.35227 44 12.449 44 23.6681C44 34.8971 34.1503 44 22 44C9.84974 44 0 34.8971 0 23.6681C0 18.9157 1.76429 14.5441 4.72058 11.0822L4.95322 11.1416Z" fill="white"/>
</svg>
